0
SECTION
2
HEADER
9
$INSUNITS
70
4
0
ENDSEC
0
SECTION
2
TABLES
0
TABLE
2
LTYPE
0
LTYPE
72
65
70
64
2
CONTINUOUS
3
______
73
0
40
0
0
ENDTAB
0
TABLE
2
LAYER
0
ENDTAB
0
ENDSEC
0
SECTION
2
ENTITIES
0
LINE
8
0
10
22.075
20
-50.15
11
35.075
21
-50.15
0
LINE
8
0
10
22.075
20
-64.15
11
35.075
21
-64.15
0
LINE
8
0
10
21.575
20
-50.65
11
21.575
21
-63.65
0
LINE
8
0
10
35.575
20
-50.65
11
35.575
21
-63.65
0
ARC
8
0
10
22.075
20
-50.65
40
0.5
50
90
51
180
0
ARC
8
0
10
35.075
20
-50.65
40
0.5
50
0
51
90
0
ARC
8
0
10
22.075
20
-63.65
40
0.5
50
180
51
270
0
ARC
8
0
10
35.075
20
-63.65
40
0.5
50
270
51
0
0
LINE
8
0
10
41.125
20
-50.15
11
54.125
21
-50.15
0
LINE
8
0
10
41.125
20
-64.15
11
54.125
21
-64.15
0
LINE
8
0
10
40.625
20
-50.65
11
40.625
21
-63.65
0
LINE
8
0
10
54.625
20
-50.65
11
54.625
21
-63.65
0
ARC
8
0
10
41.125
20
-50.65
40
0.5
50
90
51
180
0
ARC
8
0
10
54.125
20
-50.65
40
0.5
50
0
51
90
0
ARC
8
0
10
41.125
20
-63.65
40
0.5
50
180
51
270
0
ARC
8
0
10
54.125
20
-63.65
40
0.5
50
270
51
0
0
LINE
8
0
10
269.725
20
-50.15
11
282.725
21
-50.15
0
LINE
8
0
10
269.725
20
-64.15
11
282.725
21
-64.15
0
LINE
8
0
10
269.225
20
-50.65
11
269.225
21
-63.65
0
LINE
8
0
10
283.225
20
-50.65
11
283.225
21
-63.65
0
ARC
8
0
10
269.725
20
-50.65
40
0.5
50
90
51
180
0
ARC
8
0
10
282.725
20
-50.65
40
0.5
50
0
51
90
0
ARC
8
0
10
269.725
20
-63.65
40
0.5
50
180
51
270
0
ARC
8
0
10
282.725
20
-63.65
40
0.5
50
270
51
0
0
LINE
8
0
10
288.775
20
-50.15
11
301.775
21
-50.15
0
LINE
8
0
10
288.775
20
-64.15
11
301.775
21
-64.15
0
LINE
8
0
10
288.275
20
-50.65
11
288.275
21
-63.65
0
LINE
8
0
10
302.275
20
-50.65
11
302.275
21
-63.65
0
ARC
8
0
10
288.775
20
-50.65
40
0.5
50
90
51
180
0
ARC
8
0
10
301.775
20
-50.65
40
0.5
50
0
51
90
0
ARC
8
0
10
288.775
20
-63.65
40
0.5
50
180
51
270
0
ARC
8
0
10
301.775
20
-63.65
40
0.5
50
270
51
0
0
LINE
8
0
10
22.075
20
-69.2
11
35.075
21
-69.2
0
LINE
8
0
10
22.075
20
-83.2
11
35.075
21
-83.2
0
LINE
8
0
10
21.575
20
-69.7
11
21.575
21
-82.7
0
LINE
8
0
10
35.575
20
-69.7
11
35.575
21
-82.7
0
ARC
8
0
10
22.075
20
-69.7
40
0.5
50
90
51
180
0
ARC
8
0
10
35.075
20
-69.7
40
0.5
50
0
51
90
0
ARC
8
0
10
22.075
20
-82.7
40
0.5
50
180
51
270
0
ARC
8
0
10
35.075
20
-82.7
40
0.5
50
270
51
0
0
LINE
8
0
10
41.125
20
-69.2
11
54.125
21
-69.2
0
LINE
8
0
10
41.125
20
-83.2
11
54.125
21
-83.2
0
LINE
8
0
10
40.625
20
-69.7
11
40.625
21
-82.7
0
LINE
8
0
10
54.625
20
-69.7
11
54.625
21
-82.7
0
ARC
8
0
10
41.125
20
-69.7
40
0.5
50
90
51
180
0
ARC
8
0
10
54.125
20
-69.7
40
0.5
50
0
51
90
0
ARC
8
0
10
41.125
20
-82.7
40
0.5
50
180
51
270
0
ARC
8
0
10
54.125
20
-82.7
40
0.5
50
270
51
0
0
LINE
8
0
10
269.725
20
-69.2
11
282.725
21
-69.2
0
LINE
8
0
10
269.725
20
-83.2
11
282.725
21
-83.2
0
LINE
8
0
10
269.225
20
-69.7
11
269.225
21
-82.7
0
LINE
8
0
10
283.225
20
-69.7
11
283.225
21
-82.7
0
ARC
8
0
10
269.725
20
-69.7
40
0.5
50
90
51
180
0
ARC
8
0
10
282.725
20
-69.7
40
0.5
50
0
51
90
0
ARC
8
0
10
269.725
20
-82.7
40
0.5
50
180
51
270
0
ARC
8
0
10
282.725
20
-82.7
40
0.5
50
270
51
0
0
LINE
8
0
10
288.775
20
-69.2
11
301.775
21
-69.2
0
LINE
8
0
10
288.775
20
-83.2
11
301.775
21
-83.2
0
LINE
8
0
10
288.275
20
-69.7
11
288.275
21
-82.7
0
LINE
8
0
10
302.275
20
-69.7
11
302.275
21
-82.7
0
ARC
8
0
10
288.775
20
-69.7
40
0.5
50
90
51
180
0
ARC
8
0
10
301.775
20
-69.7
40
0.5
50
0
51
90
0
ARC
8
0
10
288.775
20
-82.7
40
0.5
50
180
51
270
0
ARC
8
0
10
301.775
20
-82.7
40
0.5
50
270
51
0
0
LINE
8
0
10
26.8375
20
-88.25
11
39.8375
21
-88.25
0
LINE
8
0
10
26.8375
20
-102.25
11
39.8375
21
-102.25
0
LINE
8
0
10
26.3375
20
-88.75
11
26.3375
21
-101.75
0
LINE
8
0
10
40.3375
20
-88.75
11
40.3375
21
-101.75
0
ARC
8
0
10
26.8375
20
-88.75
40
0.5
50
90
51
180
0
ARC
8
0
10
39.8375
20
-88.75
40
0.5
50
0
51
90
0
ARC
8
0
10
26.8375
20
-101.75
40
0.5
50
180
51
270
0
ARC
8
0
10
39.8375
20
-101.75
40
0.5
50
270
51
0
0
LINE
8
0
10
45.8875
20
-88.25
11
58.8875
21
-88.25
0
LINE
8
0
10
45.8875
20
-102.25
11
58.8875
21
-102.25
0
LINE
8
0
10
45.3875
20
-88.75
11
45.3875
21
-101.75
0
LINE
8
0
10
59.3875
20
-88.75
11
59.3875
21
-101.75
0
ARC
8
0
10
45.8875
20
-88.75
40
0.5
50
90
51
180
0
ARC
8
0
10
58.8875
20
-88.75
40
0.5
50
0
51
90
0
ARC
8
0
10
45.8875
20
-101.75
40
0.5
50
180
51
270
0
ARC
8
0
10
58.8875
20
-101.75
40
0.5
50
270
51
0
0
LINE
8
0
10
264.9625
20
-88.25
11
277.9625
21
-88.25
0
LINE
8
0
10
264.9625
20
-102.25
11
277.9625
21
-102.25
0
LINE
8
0
10
264.4625
20
-88.75
11
264.4625
21
-101.75
0
LINE
8
0
10
278.4625
20
-88.75
11
278.4625
21
-101.75
0
ARC
8
0
10
264.9625
20
-88.75
40
0.5
50
90
51
180
0
ARC
8
0
10
277.9625
20
-88.75
40
0.5
50
0
51
90
0
ARC
8
0
10
264.9625
20
-101.75
40
0.5
50
180
51
270
0
ARC
8
0
10
277.9625
20
-101.75
40
0.5
50
270
51
0
0
LINE
8
0
10
284.0125
20
-88.25
11
297.0125
21
-88.25
0
LINE
8
0
10
284.0125
20
-102.25
11
297.0125
21
-102.25
0
LINE
8
0
10
283.5125
20
-88.75
11
283.5125
21
-101.75
0
LINE
8
0
10
297.5125
20
-88.75
11
297.5125
21
-101.75
0
ARC
8
0
10
284.0125
20
-88.75
40
0.5
50
90
51
180
0
ARC
8
0
10
297.0125
20
-88.75
40
0.5
50
0
51
90
0
ARC
8
0
10
284.0125
20
-101.75
40
0.5
50
180
51
270
0
ARC
8
0
10
297.0125
20
-101.75
40
0.5
50
270
51
0
0
LINE
8
0
10
64.6685613
20
-48.5839158
11
77.3844801
21
-51.2867678
0
LINE
8
0
10
61.7577977
20
-62.2779822
11
74.4737165
21
-64.9808342
0
LINE
8
0
10
64.0755317
20
-48.9690338
11
61.3726797
21
-61.6849526
0
LINE
8
0
10
77.7695981
20
-51.8797974
11
75.0667461
21
-64.5957162
0
ARC
8
0
10
64.5646055
20
-49.0729896
40
0.5
50
78
51
168
0
ARC
8
0
10
77.2805243
20
-51.7758416
40
0.5
50
348
51
78
0
ARC
8
0
10
61.8617535
20
-61.7889084
40
0.5
50
168
51
258
0
ARC
8
0
10
74.5776723
20
-64.4917604
40
0.5
50
258
51
348
0
LINE
8
0
10
83.3022731
20
-52.5446335
11
96.0181919
21
-55.2474855
0
LINE
8
0
10
80.3915095
20
-66.2386999
11
93.1074283
21
-68.9415519
0
LINE
8
0
10
82.7092435
20
-52.9297515
11
80.0063915
21
-65.6456703
0
LINE
8
0
10
96.4033099
20
-55.8405151
11
93.7004579
21
-68.5564339
0
ARC
8
0
10
83.1983173
20
-53.0337073
40
0.5
50
78
51
168
0
ARC
8
0
10
95.9142361
20
-55.7365593
40
0.5
50
348
51
78
0
ARC
8
0
10
80.4954653
20
-65.7496261
40
0.5
50
168
51
258
0
ARC
8
0
10
93.2113841
20
-68.4524781
40
0.5
50
258
51
348
0
LINE
8
0
10
101.9359849
20
-56.5053512
11
114.6519037
21
-59.2082032
0
LINE
8
0
10
99.0252213
20
-70.1994176
11
111.7411401
21
-72.9022696
0
LINE
8
0
10
101.3429553
20
-56.8904692
11
98.6401033
21
-69.606388
0
LINE
8
0
10
115.0370217
20
-59.8012328
11
112.3341697
21
-72.5171516
0
ARC
8
0
10
101.8320291
20
-56.994425
40
0.5
50
78
51
168
0
ARC
8
0
10
114.5479479
20
-59.697277
40
0.5
50
348
51
78
0
ARC
8
0
10
99.1291771
20
-69.7103438
40
0.5
50
168
51
258
0
ARC
8
0
10
111.8450959
20
-72.4131958
40
0.5
50
258
51
348
0
LINE
8
0
10
120.5696967
20
-60.4660689
11
133.2856155
21
-63.1689209
0
LINE
8
0
10
117.6589331
20
-74.1601353
11
130.3748519
21
-76.8629873
0
LINE
8
0
10
119.9766671
20
-60.8511869
11
117.2738151
21
-73.5671057
0
LINE
8
0
10
133.6707335
20
-63.7619505
11
130.9678815
21
-76.4778693
0
ARC
8
0
10
120.4657409
20
-60.9551427
40
0.5
50
78
51
168
0
ARC
8
0
10
133.1816597
20
-63.6579947
40
0.5
50
348
51
78
0
ARC
8
0
10
117.7628889
20
-73.6710615
40
0.5
50
168
51
258
0
ARC
8
0
10
130.4788077
20
-76.3739135
40
0.5
50
258
51
348
0
LINE
8
0
10
65.3662716
20
-68.207807
11
78.0821904
21
-70.910659
0
LINE
8
0
10
62.455508
20
-81.9018734
11
75.1714268
21
-84.6047254
0
LINE
8
0
10
64.773242
20
-68.592925
11
62.07039
21
-81.3088438
0
LINE
8
0
10
78.4673084
20
-71.5036886
11
75.7644564
21
-84.2196074
0
ARC
8
0
10
65.2623158
20
-68.6968808
40
0.5
50
78
51
168
0
ARC
8
0
10
77.9782346
20
-71.3997328
40
0.5
50
348
51
78
0
ARC
8
0
10
62.5594638
20
-81.4127996
40
0.5
50
168
51
258
0
ARC
8
0
10
75.2753826
20
-84.1156516
40
0.5
50
258
51
348
0
LINE
8
0
10
83.9999834
20
-72.1685247
11
96.7159022
21
-74.8713767
0
LINE
8
0
10
81.0892198
20
-85.8625911
11
93.8051386
21
-88.5654431
0
LINE
8
0
10
83.4069538
20
-72.5536427
11
80.7041018
21
-85.2695615
0
LINE
8
0
10
97.1010202
20
-75.4644063
11
94.3981682
21
-88.1803251
0
ARC
8
0
10
83.8960276
20
-72.6575985
40
0.5
50
78
51
168
0
ARC
8
0
10
96.6119464
20
-75.3604505
40
0.5
50
348
51
78
0
ARC
8
0
10
81.1931756
20
-85.3735173
40
0.5
50
168
51
258
0
ARC
8
0
10
93.9090944
20
-88.0763693
40
0.5
50
258
51
348
0
LINE
8
0
10
102.6336952
20
-76.1292424
11
115.349614
21
-78.8320944
0
LINE
8
0
10
99.7229316
20
-89.8233088
11
112.4388504
21
-92.5261608
0
LINE
8
0
10
102.0406656
20
-76.5143604
11
99.3378136
21
-89.2302792
0
LINE
8
0
10
115.734732
20
-79.425124
11
113.03188
21
-92.1410428
0
ARC
8
0
10
102.5297394
20
-76.6183162
40
0.5
50
78
51
168
0
ARC
8
0
10
115.2456582
20
-79.3211682
40
0.5
50
348
51
78
0
ARC
8
0
10
99.8268874
20
-89.334235
40
0.5
50
168
51
258
0
ARC
8
0
10
112.5428062
20
-92.037087
40
0.5
50
258
51
348
0
LINE
8
0
10
121.267407
20
-80.0899602
11
133.9833258
21
-82.7928122
0
LINE
8
0
10
118.3566434
20
-93.7840266
11
131.0725622
21
-96.4868786
0
LINE
8
0
10
120.6743774
20
-80.4750782
11
117.9715254
21
-93.190997
0
LINE
8
0
10
134.3684438
20
-83.3858418
11
131.6655918
21
-96.1017606
0
ARC
8
0
10
121.1634512
20
-80.579034
40
0.5
50
78
51
168
0
ARC
8
0
10
133.87937
20
-83.281886
40
0.5
50
348
51
78
0
ARC
8
0
10
118.4605992
20
-93.2949528
40
0.5
50
168
51
258
0
ARC
8
0
10
131.176518
20
-95.9978048
40
0.5
50
258
51
348
0
LINE
8
0
10
70.7224098
20
-88.8218777
11
83.4383286
21
-91.5247297
0
LINE
8
0
10
67.8116462
20
-102.5159441
11
80.527565
21
-105.2187961
0
LINE
8
0
10
70.1293802
20
-89.2069957
11
67.4265282
21
-101.9229145
0
LINE
8
0
10
83.8234466
20
-92.1177593
11
81.1205946
21
-104.8336781
0
ARC
8
0
10
70.618454
20
-89.3109515
40
0.5
50
78
51
168
0
ARC
8
0
10
83.3343728
20
-92.0138035
40
0.5
50
348
51
78
0
ARC
8
0
10
67.915602
20
-102.0268703
40
0.5
50
168
51
258
0
ARC
8
0
10
80.6315208
20
-104.7297223
40
0.5
50
258
51
348
0
LINE
8
0
10
89.3561216
20
-92.7825954
11
102.0720404
21
-95.4854474
0
LINE
8
0
10
86.445358
20
-106.4766618
11
99.1612768
21
-109.1795138
0
LINE
8
0
10
88.763092
20
-93.1677134
11
86.06024
21
-105.8836322
0
LINE
8
0
10
102.4571584
20
-96.078477
11
99.7543064
21
-108.7943958
0
ARC
8
0
10
89.2521658
20
-93.2716692
40
0.5
50
78
51
168
0
ARC
8
0
10
101.9680846
20
-95.9745212
40
0.5
50
348
51
78
0
ARC
8
0
10
86.5493138
20
-105.987588
40
0.5
50
168
51
258
0
ARC
8
0
10
99.2652326
20
-108.69044
40
0.5
50
258
51
348
0
LINE
8
0
10
107.9898334
20
-96.7433131
11
120.7057522
21
-99.4461651
0
LINE
8
0
10
105.0790698
20
-110.4373795
11
117.7949886
21
-113.1402315
0
LINE
8
0
10
107.3968038
20
-97.1284311
11
104.6939518
21
-109.8443499
0
LINE
8
0
10
121.0908702
20
-100.0391947
11
118.3880182
21
-112.7551135
0
ARC
8
0
10
107.8858776
20
-97.2323869
40
0.5
50
78
51
168
0
ARC
8
0
10
120.6017964
20
-99.9352389
40
0.5
50
348
51
78
0
ARC
8
0
10
105.1830256
20
-109.9483057
40
0.5
50
168
51
258
0
ARC
8
0
10
117.8989444
20
-112.6511577
40
0.5
50
258
51
348
0
LINE
8
0
10
126.6235452
20
-100.7040308
11
139.339464
21
-103.4068828
0
LINE
8
0
10
123.7127816
20
-114.3980972
11
136.4287004
21
-117.1009492
0
LINE
8
0
10
126.0305156
20
-101.0891488
11
123.3276636
21
-113.8050676
0
LINE
8
0
10
139.724582
20
-103.9999124
11
137.02173
21
-116.7158312
0
ARC
8
0
10
126.5195894
20
-101.1931046
40
0.5
50
78
51
168
0
ARC
8
0
10
139.2355082
20
-103.8959566
40
0.5
50
348
51
78
0
ARC
8
0
10
123.8167374
20
-113.9090234
40
0.5
50
168
51
258
0
ARC
8
0
10
136.5326562
20
-116.6118754
40
0.5
50
258
51
348
0
LINE
8
0
10
77.9419191
20
-109.8320201
11
90.6578379
21
-112.5348721
0
LINE
8
0
10
75.0311555
20
-123.5260865
11
87.7470743
21
-126.2289385
0
LINE
8
0
10
77.3488895
20
-110.2171381
11
74.6460375
21
-122.9330569
0
LINE
8
0
10
91.0429559
20
-113.1279017
11
88.3401039
21
-125.8438205
0
ARC
8
0
10
77.8379633
20
-110.3210939
40
0.5
50
78
51
168
0
ARC
8
0
10
90.5538821
20
-113.0239459
40
0.5
50
348
51
78
0
ARC
8
0
10
75.1351113
20
-123.0370127
40
0.5
50
168
51
258
0
ARC
8
0
10
87.8510301
20
-125.7398647
40
0.5
50
258
51
348
0
LINE
8
0
10
96.5756309
20
-113.7927378
11
109.2915497
21
-116.4955898
0
LINE
8
0
10
93.6648673
20
-127.4868042
11
106.3807861
21
-130.1896562
0
LINE
8
0
10
95.9826013
20
-114.1778558
11
93.2797493
21
-126.8937746
0
LINE
8
0
10
109.6766677
20
-117.0886194
11
106.9738157
21
-129.8045382
0
ARC
8
0
10
96.4716751
20
-114.2818116
40
0.5
50
78
51
168
0
ARC
8
0
10
109.1875939
20
-116.9846636
40
0.5
50
348
51
78
0
ARC
8
0
10
93.7688231
20
-126.9977304
40
0.5
50
168
51
258
0
ARC
8
0
10
106.4847419
20
-129.7005824
40
0.5
50
258
51
348
0
LINE
8
0
10
115.2093427
20
-117.7534555
11
127.9252615
21
-120.4563075
0
LINE
8
0
10
112.2985791
20
-131.4475219
11
125.0144979
21
-134.1503739
0
LINE
8
0
10
114.6163131
20
-118.1385735
11
111.9134611
21
-130.8544923
0
LINE
8
0
10
128.3103795
20
-121.0493371
11
125.6075275
21
-133.7652559
0
ARC
8
0
10
115.1053869
20
-118.2425293
40
0.5
50
78
51
168
0
ARC
8
0
10
127.8213057
20
-120.9453813
40
0.5
50
348
51
78
0
ARC
8
0
10
112.4025349
20
-130.9584481
40
0.5
50
168
51
258
0
ARC
8
0
10
125.1184537
20
-133.6613001
40
0.5
50
258
51
348
0
LINE
8
0
10
133.8430545
20
-121.7141732
11
146.5589733
21
-124.4170252
0
LINE
8
0
10
130.9322909
20
-135.4082396
11
143.6482097
21
-138.1110916
0
LINE
8
0
10
133.2500249
20
-122.0992912
11
130.5471729
21
-134.81521
0
LINE
8
0
10
146.9440913
20
-125.0100548
11
144.2412393
21
-137.7259736
0
ARC
8
0
10
133.7390987
20
-122.203247
40
0.5
50
78
51
168
0
ARC
8
0
10
146.4550175
20
-124.906099
40
0.5
50
348
51
78
0
ARC
8
0
10
131.0362467
20
-134.9191658
40
0.5
50
168
51
258
0
ARC
8
0
10
143.7521655
20
-137.6220178
40
0.5
50
258
51
348
0
LINE
8
0
10
190.5643845
20
-63.1689209
11
203.2803033
21
-60.4660689
0
LINE
8
0
10
193.4751481
20
-76.8629873
11
206.1910669
21
-74.1601353
0
LINE
8
0
10
190.1792665
20
-63.7619505
11
192.8821185
21
-76.4778693
0
LINE
8
0
10
203.8733329
20
-60.8511869
11
206.5761849
21
-73.5671057
0
ARC
8
0
10
190.6683403
20
-63.6579947
40
0.5
50
102
51
192
0
ARC
8
0
10
203.3842591
20
-60.9551427
40
0.5
50
12
51
102
0
ARC
8
0
10
193.3711923
20
-76.3739135
40
0.5
50
192
51
282
0
ARC
8
0
10
206.0871111
20
-73.6710615
40
0.5
50
282
51
12
0
LINE
8
0
10
209.1980963
20
-59.2082032
11
221.9140151
21
-56.5053512
0
LINE
8
0
10
212.1088599
20
-72.9022696
11
224.8247787
21
-70.1994176
0
LINE
8
0
10
208.8129783
20
-59.8012328
11
211.5158303
21
-72.5171516
0
LINE
8
0
10
222.5070447
20
-56.8904692
11
225.2098967
21
-69.606388
0
ARC
8
0
10
209.3020521
20
-59.697277
40
0.5
50
102
51
192
0
ARC
8
0
10
222.0179709
20
-56.994425
40
0.5
50
12
51
102
0
ARC
8
0
10
212.0049041
20
-72.4131958
40
0.5
50
192
51
282
0
ARC
8
0
10
224.7208229
20
-69.7103438
40
0.5
50
282
51
12
0
LINE
8
0
10
227.8318081
20
-55.2474855
11
240.5477269
21
-52.5446335
0
LINE
8
0
10
230.7425717
20
-68.9415519
11
243.4584905
21
-66.2386999
0
LINE
8
0
10
227.4466901
20
-55.8405151
11
230.1495421
21
-68.5564339
0
LINE
8
0
10
241.1407565
20
-52.9297515
11
243.8436085
21
-65.6456703
0
ARC
8
0
10
227.9357639
20
-55.7365593
40
0.5
50
102
51
192
0
ARC
8
0
10
240.6516827
20
-53.0337073
40
0.5
50
12
51
102
0
ARC
8
0
10
230.6386159
20
-68.4524781
40
0.5
50
192
51
282
0
ARC
8
0
10
243.3545347
20
-65.7496261
40
0.5
50
282
51
12
0
LINE
8
0
10
246.4655199
20
-51.2867678
11
259.1814387
21
-48.5839158
0
LINE
8
0
10
249.3762835
20
-64.9808342
11
262.0922023
21
-62.2779822
0
LINE
8
0
10
246.0804019
20
-51.8797974
11
248.7832539
21
-64.5957162
0
LINE
8
0
10
259.7744683
20
-48.9690338
11
262.4773203
21
-61.6849526
0
ARC
8
0
10
246.5694757
20
-51.7758416
40
0.5
50
102
51
192
0
ARC
8
0
10
259.2853945
20
-49.0729896
40
0.5
50
12
51
102
0
ARC
8
0
10
249.2723277
20
-64.4917604
40
0.5
50
192
51
282
0
ARC
8
0
10
261.9882465
20
-61.7889084
40
0.5
50
282
51
12
0
LINE
8
0
10
189.8666742
20
-82.7928122
11
202.582593
21
-80.0899602
0
LINE
8
0
10
192.7774378
20
-96.4868786
11
205.4933566
21
-93.7840266
0
LINE
8
0
10
189.4815562
20
-83.3858418
11
192.1844082
21
-96.1017606
0
LINE
8
0
10
203.1756226
20
-80.4750782
11
205.8784746
21
-93.190997
0
ARC
8
0
10
189.97063
20
-83.281886
40
0.5
50
102
51
192
0
ARC
8
0
10
202.6865488
20
-80.579034
40
0.5
50
12
51
102
0
ARC
8
0
10
192.673482
20
-95.9978048
40
0.5
50
192
51
282
0
ARC
8
0
10
205.3894008
20
-93.2949528
40
0.5
50
282
51
12
0
LINE
8
0
10
208.500386
20
-78.8320944
11
221.2163048
21
-76.1292424
0
LINE
8
0
10
211.4111496
20
-92.5261608
11
224.1270684
21
-89.8233088
0
LINE
8
0
10
208.115268
20
-79.425124
11
210.81812
21
-92.1410428
0
LINE
8
0
10
221.8093344
20
-76.5143604
11
224.5121864
21
-89.2302792
0
ARC
8
0
10
208.6043418
20
-79.3211682
40
0.5
50
102
51
192
0
ARC
8
0
10
221.3202606
20
-76.6183162
40
0.5
50
12
51
102
0
ARC
8
0
10
211.3071938
20
-92.037087
40
0.5
50
192
51
282
0
ARC
8
0
10
224.0231126
20
-89.334235
40
0.5
50
282
51
12
0
LINE
8
0
10
227.1340978
20
-74.8713767
11
239.8500166
21
-72.1685247
0
LINE
8
0
10
230.0448614
20
-88.5654431
11
242.7607802
21
-85.8625911
0
LINE
8
0
10
226.7489798
20
-75.4644063
11
229.4518318
21
-88.1803251
0
LINE
8
0
10
240.4430462
20
-72.5536427
11
243.1458982
21
-85.2695615
0
ARC
8
0
10
227.2380536
20
-75.3604505
40
0.5
50
102
51
192
0
ARC
8
0
10
239.9539724
20
-72.6575985
40
0.5
50
12
51
102
0
ARC
8
0
10
229.9409056
20
-88.0763693
40
0.5
50
192
51
282
0
ARC
8
0
10
242.6568244
20
-85.3735173
40
0.5
50
282
51
12
0
LINE
8
0
10
245.7678096
20
-70.910659
11
258.4837284
21
-68.207807
0
LINE
8
0
10
248.6785732
20
-84.6047254
11
261.394492
21
-81.9018734
0
LINE
8
0
10
245.3826916
20
-71.5036886
11
248.0855436
21
-84.2196074
0
LINE
8
0
10
259.076758
20
-68.592925
11
261.77961
21
-81.3088438
0
ARC
8
0
10
245.8717654
20
-71.3997328
40
0.5
50
102
51
192
0
ARC
8
0
10
258.5876842
20
-68.6968808
40
0.5
50
12
51
102
0
ARC
8
0
10
248.5746174
20
-84.1156516
40
0.5
50
192
51
282
0
ARC
8
0
10
261.2905362
20
-81.4127996
40
0.5
50
282
51
12
0
LINE
8
0
10
184.510536
20
-103.4068828
11
197.2264548
21
-100.7040308
0
LINE
8
0
10
187.4212996
20
-117.1009492
11
200.1372184
21
-114.3980972
0
LINE
8
0
10
184.125418
20
-103.9999124
11
186.82827
21
-116.7158312
0
LINE
8
0
10
197.8194844
20
-101.0891488
11
200.5223364
21
-113.8050676
0
ARC
8
0
10
184.6144918
20
-103.8959566
40
0.5
50
102
51
192
0
ARC
8
0
10
197.3304106
20
-101.1931046
40
0.5
50
12
51
102
0
ARC
8
0
10
187.3173438
20
-116.6118754
40
0.5
50
192
51
282
0
ARC
8
0
10
200.0332626
20
-113.9090234
40
0.5
50
282
51
12
0
LINE
8
0
10
203.1442478
20
-99.4461651
11
215.8601666
21
-96.7433131
0
LINE
8
0
10
206.0550114
20
-113.1402315
11
218.7709302
21
-110.4373795
0
LINE
8
0
10
202.7591298
20
-100.0391947
11
205.4619818
21
-112.7551135
0
LINE
8
0
10
216.4531962
20
-97.1284311
11
219.1560482
21
-109.8443499
0
ARC
8
0
10
203.2482036
20
-99.9352389
40
0.5
50
102
51
192
0
ARC
8
0
10
215.9641224
20
-97.2323869
40
0.5
50
12
51
102
0
ARC
8
0
10
205.9510556
20
-112.6511577
40
0.5
50
192
51
282
0
ARC
8
0
10
218.6669744
20
-109.9483057
40
0.5
50
282
51
12
0
LINE
8
0
10
221.7779596
20
-95.4854474
11
234.4938784
21
-92.7825954
0
LINE
8
0
10
224.6887232
20
-109.1795138
11
237.404642
21
-106.4766618
0
LINE
8
0
10
221.3928416
20
-96.078477
11
224.0956936
21
-108.7943958
0
LINE
8
0
10
235.086908
20
-93.1677134
11
237.78976
21
-105.8836322
0
ARC
8
0
10
221.8819154
20
-95.9745212
40
0.5
50
102
51
192
0
ARC
8
0
10
234.5978342
20
-93.2716692
40
0.5
50
12
51
102
0
ARC
8
0
10
224.5847674
20
-108.69044
40
0.5
50
192
51
282
0
ARC
8
0
10
237.3006862
20
-105.987588
40
0.5
50
282
51
12
0
LINE
8
0
10
240.4116714
20
-91.5247297
11
253.1275902
21
-88.8218777
0
LINE
8
0
10
243.322435
20
-105.2187961
11
256.0383538
21
-102.5159441
0
LINE
8
0
10
240.0265534
20
-92.1177593
11
242.7294054
21
-104.8336781
0
LINE
8
0
10
253.7206198
20
-89.2069957
11
256.4234718
21
-101.9229145
0
ARC
8
0
10
240.5156272
20
-92.0138035
40
0.5
50
102
51
192
0
ARC
8
0
10
253.231546
20
-89.3109515
40
0.5
50
12
51
102
0
ARC
8
0
10
243.2184792
20
-104.7297223
40
0.5
50
192
51
282
0
ARC
8
0
10
255.934398
20
-102.0268703
40
0.5
50
282
51
12
0
LINE
8
0
10
177.2910267
20
-124.4170252
11
190.0069455
21
-121.7141732
0
LINE
8
0
10
180.2017903
20
-138.1110916
11
192.9177091
21
-135.4082396
0
LINE
8
0
10
176.9059087
20
-125.0100548
11
179.6087607
21
-137.7259736
0
LINE
8
0
10
190.5999751
20
-122.0992912
11
193.3028271
21
-134.81521
0
ARC
8
0
10
177.3949825
20
-124.906099
40
0.5
50
102
51
192
0
ARC
8
0
10
190.1109013
20
-122.203247
40
0.5
50
12
51
102
0
ARC
8
0
10
180.0978345
20
-137.6220178
40
0.5
50
192
51
282
0
ARC
8
0
10
192.8137533
20
-134.9191658
40
0.5
50
282
51
12
0
LINE
8
0
10
195.9247385
20
-120.4563075
11
208.6406573
21
-117.7534555
0
LINE
8
0
10
198.8355021
20
-134.1503739
11
211.5514209
21
-131.4475219
0
LINE
8
0
10
195.5396205
20
-121.0493371
11
198.2424725
21
-133.7652559
0
LINE
8
0
10
209.2336869
20
-118.1385735
11
211.9365389
21
-130.8544923
0
ARC
8
0
10
196.0286943
20
-120.9453813
40
0.5
50
102
51
192
0
ARC
8
0
10
208.7446131
20
-118.2425293
40
0.5
50
12
51
102
0
ARC
8
0
10
198.7315463
20
-133.6613001
40
0.5
50
192
51
282
0
ARC
8
0
10
211.4474651
20
-130.9584481
40
0.5
50
282
51
12
0
LINE
8
0
10
214.5584503
20
-116.4955898
11
227.2743691
21
-113.7927378
0
LINE
8
0
10
217.4692139
20
-130.1896562
11
230.1851327
21
-127.4868042
0
LINE
8
0
10
214.1733323
20
-117.0886194
11
216.8761843
21
-129.8045382
0
LINE
8
0
10
227.8673987
20
-114.1778558
11
230.5702507
21
-126.8937746
0
ARC
8
0
10
214.6624061
20
-116.9846636
40
0.5
50
102
51
192
0
ARC
8
0
10
227.3783249
20
-114.2818116
40
0.5
50
12
51
102
0
ARC
8
0
10
217.3652581
20
-129.7005824
40
0.5
50
192
51
282
0
ARC
8
0
10
230.0811769
20
-126.9977304
40
0.5
50
282
51
12
0
LINE
8
0
10
233.1921621
20
-112.5348721
11
245.9080809
21
-109.8320201
0
LINE
8
0
10
236.1029257
20
-126.2289385
11
248.8188445
21
-123.5260865
0
LINE
8
0
10
232.8070441
20
-113.1279017
11
235.5098961
21
-125.8438205
0
LINE
8
0
10
246.5011105
20
-110.2171381
11
249.2039625
21
-122.9330569
0
ARC
8
0
10
233.2961179
20
-113.0239459
40
0.5
50
102
51
192
0
ARC
8
0
10
246.0120367
20
-110.3210939
40
0.5
50
12
51
102
0
ARC
8
0
10
235.9989699
20
-125.7398647
40
0.5
50
192
51
282
0
ARC
8
0
10
248.7148887
20
-123.0370127
40
0.5
50
282
51
12
0
LINE
8
0
10
19.05
20
-139.4376324
11
304.8
21
-139.4376324
0
LINE
8
0
10
19.05
20
-47.257375
11
304.8
21
-47.257375
0
LINE
8
0
10
19.05
20
-139.4376324
11
19.05
21
-47.257375
0
LINE
8
0
10
304.8
20
-139.4376324
11
304.8
21
-47.257375
0
ENDSEC
0
EOF