0
SECTION
2
HEADER
9
$INSUNITS
70
4
0
ENDSEC
0
SECTION
2
TABLES
0
TABLE
2
LTYPE
0
LTYPE
72
65
70
64
2
CONTINUOUS
3
______
73
0
40
0
0
ENDTAB
0
TABLE
2
LAYER
0
ENDTAB
0
ENDSEC
0
SECTION
2
ENTITIES
0
LINE
8
0
10
20.5
20
-47
11
33.5
21
-47
0
LINE
8
0
10
20.5
20
-61
11
33.5
21
-61
0
LINE
8
0
10
20
20
-47.5
11
20
21
-60.5
0
LINE
8
0
10
34
20
-47.5
11
34
21
-60.5
0
ARC
8
0
10
20.5
20
-47.5
40
0.5
50
90
51
180
0
ARC
8
0
10
33.5
20
-47.5
40
0.5
50
0
51
90
0
ARC
8
0
10
20.5
20
-60.5
40
0.5
50
180
51
270
0
ARC
8
0
10
33.5
20
-60.5
40
0.5
50
270
51
0
0
LINE
8
0
10
38.5
20
-47
11
51.5
21
-47
0
LINE
8
0
10
38.5
20
-61
11
51.5
21
-61
0
LINE
8
0
10
38
20
-47.5
11
38
21
-60.5
0
LINE
8
0
10
52
20
-47.5
11
52
21
-60.5
0
ARC
8
0
10
38.5
20
-47.5
40
0.5
50
90
51
180
0
ARC
8
0
10
51.5
20
-47.5
40
0.5
50
0
51
90
0
ARC
8
0
10
38.5
20
-60.5
40
0.5
50
180
51
270
0
ARC
8
0
10
51.5
20
-60.5
40
0.5
50
270
51
0
0
LINE
8
0
10
254.5
20
-47
11
267.5
21
-47
0
LINE
8
0
10
254.5
20
-61
11
267.5
21
-61
0
LINE
8
0
10
254
20
-47.5
11
254
21
-60.5
0
LINE
8
0
10
268
20
-47.5
11
268
21
-60.5
0
ARC
8
0
10
254.5
20
-47.5
40
0.5
50
90
51
180
0
ARC
8
0
10
267.5
20
-47.5
40
0.5
50
0
51
90
0
ARC
8
0
10
254.5
20
-60.5
40
0.5
50
180
51
270
0
ARC
8
0
10
267.5
20
-60.5
40
0.5
50
270
51
0
0
LINE
8
0
10
272.5
20
-47
11
285.5
21
-47
0
LINE
8
0
10
272.5
20
-61
11
285.5
21
-61
0
LINE
8
0
10
272
20
-47.5
11
272
21
-60.5
0
LINE
8
0
10
286
20
-47.5
11
286
21
-60.5
0
ARC
8
0
10
272.5
20
-47.5
40
0.5
50
90
51
180
0
ARC
8
0
10
285.5
20
-47.5
40
0.5
50
0
51
90
0
ARC
8
0
10
272.5
20
-60.5
40
0.5
50
180
51
270
0
ARC
8
0
10
285.5
20
-60.5
40
0.5
50
270
51
0
0
LINE
8
0
10
20.5
20
-65
11
33.5
21
-65
0
LINE
8
0
10
20.5
20
-79
11
33.5
21
-79
0
LINE
8
0
10
20
20
-65.5
11
20
21
-78.5
0
LINE
8
0
10
34
20
-65.5
11
34
21
-78.5
0
ARC
8
0
10
20.5
20
-65.5
40
0.5
50
90
51
180
0
ARC
8
0
10
33.5
20
-65.5
40
0.5
50
0
51
90
0
ARC
8
0
10
20.5
20
-78.5
40
0.5
50
180
51
270
0
ARC
8
0
10
33.5
20
-78.5
40
0.5
50
270
51
0
0
LINE
8
0
10
38.5
20
-65
11
51.5
21
-65
0
LINE
8
0
10
38.5
20
-79
11
51.5
21
-79
0
LINE
8
0
10
38
20
-65.5
11
38
21
-78.5
0
LINE
8
0
10
52
20
-65.5
11
52
21
-78.5
0
ARC
8
0
10
38.5
20
-65.5
40
0.5
50
90
51
180
0
ARC
8
0
10
51.5
20
-65.5
40
0.5
50
0
51
90
0
ARC
8
0
10
38.5
20
-78.5
40
0.5
50
180
51
270
0
ARC
8
0
10
51.5
20
-78.5
40
0.5
50
270
51
0
0
LINE
8
0
10
254.5
20
-65
11
267.5
21
-65
0
LINE
8
0
10
254.5
20
-79
11
267.5
21
-79
0
LINE
8
0
10
254
20
-65.5
11
254
21
-78.5
0
LINE
8
0
10
268
20
-65.5
11
268
21
-78.5
0
ARC
8
0
10
254.5
20
-65.5
40
0.5
50
90
51
180
0
ARC
8
0
10
267.5
20
-65.5
40
0.5
50
0
51
90
0
ARC
8
0
10
254.5
20
-78.5
40
0.5
50
180
51
270
0
ARC
8
0
10
267.5
20
-78.5
40
0.5
50
270
51
0
0
LINE
8
0
10
272.5
20
-65
11
285.5
21
-65
0
LINE
8
0
10
272.5
20
-79
11
285.5
21
-79
0
LINE
8
0
10
272
20
-65.5
11
272
21
-78.5
0
LINE
8
0
10
286
20
-65.5
11
286
21
-78.5
0
ARC
8
0
10
272.5
20
-65.5
40
0.5
50
90
51
180
0
ARC
8
0
10
285.5
20
-65.5
40
0.5
50
0
51
90
0
ARC
8
0
10
272.5
20
-78.5
40
0.5
50
180
51
270
0
ARC
8
0
10
285.5
20
-78.5
40
0.5
50
270
51
0
0
LINE
8
0
10
25
20
-83
11
38
21
-83
0
LINE
8
0
10
25
20
-97
11
38
21
-97
0
LINE
8
0
10
24.5
20
-83.5
11
24.5
21
-96.5
0
LINE
8
0
10
38.5
20
-83.5
11
38.5
21
-96.5
0
ARC
8
0
10
25
20
-83.5
40
0.5
50
90
51
180
0
ARC
8
0
10
38
20
-83.5
40
0.5
50
0
51
90
0
ARC
8
0
10
25
20
-96.5
40
0.5
50
180
51
270
0
ARC
8
0
10
38
20
-96.5
40
0.5
50
270
51
0
0
LINE
8
0
10
43
20
-83
11
56
21
-83
0
LINE
8
0
10
43
20
-97
11
56
21
-97
0
LINE
8
0
10
42.5
20
-83.5
11
42.5
21
-96.5
0
LINE
8
0
10
56.5
20
-83.5
11
56.5
21
-96.5
0
ARC
8
0
10
43
20
-83.5
40
0.5
50
90
51
180
0
ARC
8
0
10
56
20
-83.5
40
0.5
50
0
51
90
0
ARC
8
0
10
43
20
-96.5
40
0.5
50
180
51
270
0
ARC
8
0
10
56
20
-96.5
40
0.5
50
270
51
0
0
LINE
8
0
10
250
20
-83
11
263
21
-83
0
LINE
8
0
10
250
20
-97
11
263
21
-97
0
LINE
8
0
10
249.5
20
-83.5
11
249.5
21
-96.5
0
LINE
8
0
10
263.5
20
-83.5
11
263.5
21
-96.5
0
ARC
8
0
10
250
20
-83.5
40
0.5
50
90
51
180
0
ARC
8
0
10
263
20
-83.5
40
0.5
50
0
51
90
0
ARC
8
0
10
250
20
-96.5
40
0.5
50
180
51
270
0
ARC
8
0
10
263
20
-96.5
40
0.5
50
270
51
0
0
LINE
8
0
10
268
20
-83
11
281
21
-83
0
LINE
8
0
10
268
20
-97
11
281
21
-97
0
LINE
8
0
10
267.5
20
-83.5
11
267.5
21
-96.5
0
LINE
8
0
10
281.5
20
-83.5
11
281.5
21
-96.5
0
ARC
8
0
10
268
20
-83.5
40
0.5
50
90
51
180
0
ARC
8
0
10
281
20
-83.5
40
0.5
50
0
51
90
0
ARC
8
0
10
268
20
-96.5
40
0.5
50
180
51
270
0
ARC
8
0
10
281
20
-96.5
40
0.5
50
270
51
0
0
LINE
8
0
10
60.8339316
20
-45.4541786
11
73.5498504
21
-48.1570306
0
LINE
8
0
10
57.923168
20
-59.148245
11
70.6390868
21
-61.851097
0
LINE
8
0
10
60.240902
20
-45.8392966
11
57.53805
21
-58.5552154
0
LINE
8
0
10
73.9349684
20
-48.7500602
11
71.2321164
21
-61.465979
0
ARC
8
0
10
60.7299758
20
-45.9432524
40
0.5
50
78
51
168
0
ARC
8
0
10
73.4458946
20
-48.6461044
40
0.5
50
348
51
78
0
ARC
8
0
10
58.0271238
20
-58.6591712
40
0.5
50
168
51
258
0
ARC
8
0
10
70.7430426
20
-61.3620232
40
0.5
50
258
51
348
0
LINE
8
0
10
78.4405885
20
-49.196589
11
91.1565073
21
-51.899441
0
LINE
8
0
10
75.5298249
20
-62.8906554
11
88.2457437
21
-65.5935074
0
LINE
8
0
10
77.8475589
20
-49.581707
11
75.1447069
21
-62.2976258
0
LINE
8
0
10
91.5416253
20
-52.4924706
11
88.8387733
21
-65.2083894
0
ARC
8
0
10
78.3366327
20
-49.6856628
40
0.5
50
78
51
168
0
ARC
8
0
10
91.0525515
20
-52.3885148
40
0.5
50
348
51
78
0
ARC
8
0
10
75.6337807
20
-62.4015816
40
0.5
50
168
51
258
0
ARC
8
0
10
88.3496995
20
-65.1044336
40
0.5
50
258
51
348
0
LINE
8
0
10
96.0472453
20
-52.9389995
11
108.7631641
21
-55.6418515
0
LINE
8
0
10
93.1364817
20
-66.6330659
11
105.8524005
21
-69.3359179
0
LINE
8
0
10
95.4542157
20
-53.3241175
11
92.7513637
21
-66.0400363
0
LINE
8
0
10
109.1482821
20
-56.2348811
11
106.4454301
21
-68.9507999
0
ARC
8
0
10
95.9432895
20
-53.4280733
40
0.5
50
78
51
168
0
ARC
8
0
10
108.6592083
20
-56.1309253
40
0.5
50
348
51
78
0
ARC
8
0
10
93.2404375
20
-66.1439921
40
0.5
50
168
51
258
0
ARC
8
0
10
105.9563563
20
-68.8468441
40
0.5
50
258
51
348
0
LINE
8
0
10
113.6539021
20
-56.6814099
11
126.3698209
21
-59.3842619
0
LINE
8
0
10
110.7431385
20
-70.3754763
11
123.4590573
21
-73.0783283
0
LINE
8
0
10
113.0608725
20
-57.0665279
11
110.3580205
21
-69.7824467
0
LINE
8
0
10
126.7549389
20
-59.9772915
11
124.0520869
21
-72.6932103
0
ARC
8
0
10
113.5499463
20
-57.1704837
40
0.5
50
78
51
168
0
ARC
8
0
10
126.2658651
20
-59.8733357
40
0.5
50
348
51
78
0
ARC
8
0
10
110.8470943
20
-69.8864025
40
0.5
50
168
51
258
0
ARC
8
0
10
123.5630131
20
-72.5892545
40
0.5
50
258
51
348
0
LINE
8
0
10
61.4931854
20
-63.996438
11
74.2091042
21
-66.69929
0
LINE
8
0
10
58.5824218
20
-77.6905044
11
71.2983406
21
-80.3933564
0
LINE
8
0
10
60.9001558
20
-64.381556
11
58.1973038
21
-77.0974748
0
LINE
8
0
10
74.5942222
20
-67.2923196
11
71.8913702
21
-80.0082384
0
ARC
8
0
10
61.3892296
20
-64.4855118
40
0.5
50
78
51
168
0
ARC
8
0
10
74.1051484
20
-67.1883638
40
0.5
50
348
51
78
0
ARC
8
0
10
58.6863776
20
-77.2014306
40
0.5
50
168
51
258
0
ARC
8
0
10
71.4022964
20
-79.9042826
40
0.5
50
258
51
348
0
LINE
8
0
10
79.0998422
20
-67.7388485
11
91.815761
21
-70.4417005
0
LINE
8
0
10
76.1890786
20
-81.4329149
11
88.9049974
21
-84.1357669
0
LINE
8
0
10
78.5068126
20
-68.1239665
11
75.8039606
21
-80.8398853
0
LINE
8
0
10
92.200879
20
-71.0347301
11
89.498027
21
-83.7506489
0
ARC
8
0
10
78.9958864
20
-68.2279223
40
0.5
50
78
51
168
0
ARC
8
0
10
91.7118052
20
-70.9307743
40
0.5
50
348
51
78
0
ARC
8
0
10
76.2930344
20
-80.9438411
40
0.5
50
168
51
258
0
ARC
8
0
10
89.0089532
20
-83.6466931
40
0.5
50
258
51
348
0
LINE
8
0
10
96.706499
20
-71.4812589
11
109.4224178
21
-74.1841109
0
LINE
8
0
10
93.7957354
20
-85.1753253
11
106.5116542
21
-87.8781773
0
LINE
8
0
10
96.1134694
20
-71.8663769
11
93.4106174
21
-84.5822957
0
LINE
8
0
10
109.8075358
20
-74.7771405
11
107.1046838
21
-87.4930593
0
ARC
8
0
10
96.6025432
20
-71.9703327
40
0.5
50
78
51
168
0
ARC
8
0
10
109.318462
20
-74.6731847
40
0.5
50
348
51
78
0
ARC
8
0
10
93.8996912
20
-84.6862515
40
0.5
50
168
51
258
0
ARC
8
0
10
106.61561
20
-87.3891035
40
0.5
50
258
51
348
0
LINE
8
0
10
114.3131558
20
-75.2236693
11
127.0290746
21
-77.9265213
0
LINE
8
0
10
111.4023922
20
-88.9177357
11
124.118311
21
-91.6205877
0
LINE
8
0
10
113.7201262
20
-75.6087873
11
111.0172742
21
-88.3247061
0
LINE
8
0
10
127.4141926
20
-78.5195509
11
124.7113406
21
-91.2354697
0
ARC
8
0
10
114.2092
20
-75.7127431
40
0.5
50
78
51
168
0
ARC
8
0
10
126.9251188
20
-78.4155951
40
0.5
50
348
51
78
0
ARC
8
0
10
111.506348
20
-88.4286619
40
0.5
50
168
51
258
0
ARC
8
0
10
124.2222668
20
-91.1315139
40
0.5
50
258
51
348
0
LINE
8
0
10
66.5541034
20
-83.4743001
11
79.2700222
21
-86.1771521
0
LINE
8
0
10
63.6433398
20
-97.1683665
11
76.3592586
21
-99.8712185
0
LINE
8
0
10
65.9610738
20
-83.8594181
11
63.2582218
21
-96.5753369
0
LINE
8
0
10
79.6551402
20
-86.7701817
11
76.9522882
21
-99.4861005
0
ARC
8
0
10
66.4501476
20
-83.9633739
40
0.5
50
78
51
168
0
ARC
8
0
10
79.1660664
20
-86.6662259
40
0.5
50
348
51
78
0
ARC
8
0
10
63.7472956
20
-96.6792927
40
0.5
50
168
51
258
0
ARC
8
0
10
76.4632144
20
-99.3821447
40
0.5
50
258
51
348
0
LINE
8
0
10
84.1607602
20
-87.2167105
11
96.876679
21
-89.9195625
0
LINE
8
0
10
81.2499966
20
-100.9107769
11
93.9659154
21
-103.6136289
0
LINE
8
0
10
83.5677306
20
-87.6018285
11
80.8648786
21
-100.3177473
0
LINE
8
0
10
97.261797
20
-90.5125921
11
94.558945
21
-103.2285109
0
ARC
8
0
10
84.0568044
20
-87.7057843
40
0.5
50
78
51
168
0
ARC
8
0
10
96.7727232
20
-90.4086363
40
0.5
50
348
51
78
0
ARC
8
0
10
81.3539524
20
-100.4217031
40
0.5
50
168
51
258
0
ARC
8
0
10
94.0698712
20
-103.1245551
40
0.5
50
258
51
348
0
LINE
8
0
10
101.767417
20
-90.9591209
11
114.4833358
21
-93.6619729
0
LINE
8
0
10
98.8566534
20
-104.6531873
11
111.5725722
21
-107.3560393
0
LINE
8
0
10
101.1743874
20
-91.3442389
11
98.4715354
21
-104.0601577
0
LINE
8
0
10
114.8684538
20
-94.2550025
11
112.1656018
21
-106.9709213
0
ARC
8
0
10
101.6634612
20
-91.4481947
40
0.5
50
78
51
168
0
ARC
8
0
10
114.37938
20
-94.1510467
40
0.5
50
348
51
78
0
ARC
8
0
10
98.9606092
20
-104.1641135
40
0.5
50
168
51
258
0
ARC
8
0
10
111.676528
20
-106.8669655
40
0.5
50
258
51
348
0
LINE
8
0
10
119.3740738
20
-94.7015314
11
132.0899926
21
-97.4043834
0
LINE
8
0
10
116.4633102
20
-108.3955978
11
129.179229
21
-111.0984498
0
LINE
8
0
10
118.7810442
20
-95.0866494
11
116.0781922
21
-107.8025682
0
LINE
8
0
10
132.4751106
20
-97.997413
11
129.7722586
21
-110.7133318
0
ARC
8
0
10
119.270118
20
-95.1906052
40
0.5
50
78
51
168
0
ARC
8
0
10
131.9860368
20
-97.8934572
40
0.5
50
348
51
78
0
ARC
8
0
10
116.567266
20
-107.906524
40
0.5
50
168
51
258
0
ARC
8
0
10
129.2831848
20
-110.609376
40
0.5
50
258
51
348
0
LINE
8
0
10
73.375687
20
-103.3264031
11
86.0916058
21
-106.0292551
0
LINE
8
0
10
70.4649234
20
-117.0204695
11
83.1808422
21
-119.7233215
0
LINE
8
0
10
72.7826574
20
-103.7115211
11
70.0798054
21
-116.4274399
0
LINE
8
0
10
86.4767238
20
-106.6222847
11
83.7738718
21
-119.3382035
0
ARC
8
0
10
73.2717312
20
-103.8154769
40
0.5
50
78
51
168
0
ARC
8
0
10
85.98765
20
-106.5183289
40
0.5
50
348
51
78
0
ARC
8
0
10
70.5688792
20
-116.5313957
40
0.5
50
168
51
258
0
ARC
8
0
10
83.284798
20
-119.2342477
40
0.5
50
258
51
348
0
LINE
8
0
10
90.9823438
20
-107.0688136
11
103.6982626
21
-109.7716656
0
LINE
8
0
10
88.0715802
20
-120.76288
11
100.787499
21
-123.465732
0
LINE
8
0
10
90.3893142
20
-107.4539316
11
87.6864622
21
-120.1698504
0
LINE
8
0
10
104.0833806
20
-110.3646952
11
101.3805286
21
-123.080614
0
ARC
8
0
10
90.878388
20
-107.5578874
40
0.5
50
78
51
168
0
ARC
8
0
10
103.5943068
20
-110.2607394
40
0.5
50
348
51
78
0
ARC
8
0
10
88.175536
20
-120.2738062
40
0.5
50
168
51
258
0
ARC
8
0
10
100.8914548
20
-122.9766582
40
0.5
50
258
51
348
0
LINE
8
0
10
108.5890007
20
-110.811224
11
121.3049195
21
-113.514076
0
LINE
8
0
10
105.6782371
20
-124.5052904
11
118.3941559
21
-127.2081424
0
LINE
8
0
10
107.9959711
20
-111.196342
11
105.2931191
21
-123.9122608
0
LINE
8
0
10
121.6900375
20
-114.1071056
11
118.9871855
21
-126.8230244
0
ARC
8
0
10
108.4850449
20
-111.3002978
40
0.5
50
78
51
168
0
ARC
8
0
10
121.2009637
20
-114.0031498
40
0.5
50
348
51
78
0
ARC
8
0
10
105.7821929
20
-124.0162166
40
0.5
50
168
51
258
0
ARC
8
0
10
118.4981117
20
-126.7190686
40
0.5
50
258
51
348
0
LINE
8
0
10
126.1956575
20
-114.5536344
11
138.9115763
21
-117.2564864
0
LINE
8
0
10
123.2848939
20
-128.2477008
11
136.0008127
21
-130.9505528
0
LINE
8
0
10
125.6026279
20
-114.9387524
11
122.8997759
21
-127.6546712
0
LINE
8
0
10
139.2966943
20
-117.849516
11
136.5938423
21
-130.5654348
0
ARC
8
0
10
126.0917017
20
-115.0427082
40
0.5
50
78
51
168
0
ARC
8
0
10
138.8076205
20
-117.7455602
40
0.5
50
348
51
78
0
ARC
8
0
10
123.3888497
20
-127.758627
40
0.5
50
168
51
258
0
ARC
8
0
10
136.1047685
20
-130.461479
40
0.5
50
258
51
348
0
LINE
8
0
10
179.6301791
20
-59.3842619
11
192.3460979
21
-56.6814099
0
LINE
8
0
10
182.5409427
20
-73.0783283
11
195.2568615
21
-70.3754763
0
LINE
8
0
10
179.2450611
20
-59.9772915
11
181.9479131
21
-72.6932103
0
LINE
8
0
10
192.9391275
20
-57.0665279
11
195.6419795
21
-69.7824467
0
ARC
8
0
10
179.7341349
20
-59.8733357
40
0.5
50
102
51
192
0
ARC
8
0
10
192.4500537
20
-57.1704837
40
0.5
50
12
51
102
0
ARC
8
0
10
182.4369869
20
-72.5892545
40
0.5
50
192
51
282
0
ARC
8
0
10
195.1529057
20
-69.8864025
40
0.5
50
282
51
12
0
LINE
8
0
10
197.2368359
20
-55.6418515
11
209.9527547
21
-52.9389995
0
LINE
8
0
10
200.1475995
20
-69.3359179
11
212.8635183
21
-66.6330659
0
LINE
8
0
10
196.8517179
20
-56.2348811
11
199.5545699
21
-68.9507999
0
LINE
8
0
10
210.5457843
20
-53.3241175
11
213.2486363
21
-66.0400363
0
ARC
8
0
10
197.3407917
20
-56.1309253
40
0.5
50
102
51
192
0
ARC
8
0
10
210.0567105
20
-53.4280733
40
0.5
50
12
51
102
0
ARC
8
0
10
200.0436437
20
-68.8468441
40
0.5
50
192
51
282
0
ARC
8
0
10
212.7595625
20
-66.1439921
40
0.5
50
282
51
12
0
LINE
8
0
10
214.8434927
20
-51.899441
11
227.5594115
21
-49.196589
0
LINE
8
0
10
217.7542563
20
-65.5935074
11
230.4701751
21
-62.8906554
0
LINE
8
0
10
214.4583747
20
-52.4924706
11
217.1612267
21
-65.2083894
0
LINE
8
0
10
228.1524411
20
-49.581707
11
230.8552931
21
-62.2976258
0
ARC
8
0
10
214.9474485
20
-52.3885148
40
0.5
50
102
51
192
0
ARC
8
0
10
227.6633673
20
-49.6856628
40
0.5
50
12
51
102
0
ARC
8
0
10
217.6503005
20
-65.1044336
40
0.5
50
192
51
282
0
ARC
8
0
10
230.3662193
20
-62.4015816
40
0.5
50
282
51
12
0
LINE
8
0
10
232.4501496
20
-48.1570306
11
245.1660684
21
-45.4541786
0
LINE
8
0
10
235.3609132
20
-61.851097
11
248.076832
21
-59.148245
0
LINE
8
0
10
232.0650316
20
-48.7500602
11
234.7678836
21
-61.465979
0
LINE
8
0
10
245.759098
20
-45.8392966
11
248.46195
21
-58.5552154
0
ARC
8
0
10
232.5541054
20
-48.6461044
40
0.5
50
102
51
192
0
ARC
8
0
10
245.2700242
20
-45.9432524
40
0.5
50
12
51
102
0
ARC
8
0
10
235.2569574
20
-61.3620232
40
0.5
50
192
51
282
0
ARC
8
0
10
247.9728762
20
-58.6591712
40
0.5
50
282
51
12
0
LINE
8
0
10
178.9709254
20
-77.9265213
11
191.6868442
21
-75.2236693
0
LINE
8
0
10
181.881689
20
-91.6205877
11
194.5976078
21
-88.9177357
0
LINE
8
0
10
178.5858074
20
-78.5195509
11
181.2886594
21
-91.2354697
0
LINE
8
0
10
192.2798738
20
-75.6087873
11
194.9827258
21
-88.3247061
0
ARC
8
0
10
179.0748812
20
-78.4155951
40
0.5
50
102
51
192
0
ARC
8
0
10
191.7908
20
-75.7127431
40
0.5
50
12
51
102
0
ARC
8
0
10
181.7777332
20
-91.1315139
40
0.5
50
192
51
282
0
ARC
8
0
10
194.493652
20
-88.4286619
40
0.5
50
282
51
12
0
LINE
8
0
10
196.5775822
20
-74.1841109
11
209.293501
21
-71.4812589
0
LINE
8
0
10
199.4883458
20
-87.8781773
11
212.2042646
21
-85.1753253
0
LINE
8
0
10
196.1924642
20
-74.7771405
11
198.8953162
21
-87.4930593
0
LINE
8
0
10
209.8865306
20
-71.8663769
11
212.5893826
21
-84.5822957
0
ARC
8
0
10
196.681538
20
-74.6731847
40
0.5
50
102
51
192
0
ARC
8
0
10
209.3974568
20
-71.9703327
40
0.5
50
12
51
102
0
ARC
8
0
10
199.38439
20
-87.3891035
40
0.5
50
192
51
282
0
ARC
8
0
10
212.1003088
20
-84.6862515
40
0.5
50
282
51
12
0
LINE
8
0
10
214.184239
20
-70.4417005
11
226.9001578
21
-67.7388485
0
LINE
8
0
10
217.0950026
20
-84.1357669
11
229.8109214
21
-81.4329149
0
LINE
8
0
10
213.799121
20
-71.0347301
11
216.501973
21
-83.7506489
0
LINE
8
0
10
227.4931874
20
-68.1239665
11
230.1960394
21
-80.8398853
0
ARC
8
0
10
214.2881948
20
-70.9307743
40
0.5
50
102
51
192
0
ARC
8
0
10
227.0041136
20
-68.2279223
40
0.5
50
12
51
102
0
ARC
8
0
10
216.9910468
20
-83.6466931
40
0.5
50
192
51
282
0
ARC
8
0
10
229.7069656
20
-80.9438411
40
0.5
50
282
51
12
0
LINE
8
0
10
231.7908958
20
-66.69929
11
244.5068146
21
-63.996438
0
LINE
8
0
10
234.7016594
20
-80.3933564
11
247.4175782
21
-77.6905044
0
LINE
8
0
10
231.4057778
20
-67.2923196
11
234.1086298
21
-80.0082384
0
LINE
8
0
10
245.0998442
20
-64.381556
11
247.8026962
21
-77.0974748
0
ARC
8
0
10
231.8948516
20
-67.1883638
40
0.5
50
102
51
192
0
ARC
8
0
10
244.6107704
20
-64.4855118
40
0.5
50
12
51
102
0
ARC
8
0
10
234.5977036
20
-79.9042826
40
0.5
50
192
51
282
0
ARC
8
0
10
247.3136224
20
-77.2014306
40
0.5
50
282
51
12
0
LINE
8
0
10
173.9100074
20
-97.4043834
11
186.6259262
21
-94.7015314
0
LINE
8
0
10
176.820771
20
-111.0984498
11
189.5366898
21
-108.3955978
0
LINE
8
0
10
173.5248894
20
-97.997413
11
176.2277414
21
-110.7133318
0
LINE
8
0
10
187.2189558
20
-95.0866494
11
189.9218078
21
-107.8025682
0
ARC
8
0
10
174.0139632
20
-97.8934572
40
0.5
50
102
51
192
0
ARC
8
0
10
186.729882
20
-95.1906052
40
0.5
50
12
51
102
0
ARC
8
0
10
176.7168152
20
-110.609376
40
0.5
50
192
51
282
0
ARC
8
0
10
189.432734
20
-107.906524
40
0.5
50
282
51
12
0
LINE
8
0
10
191.5166642
20
-93.6619729
11
204.232583
21
-90.9591209
0
LINE
8
0
10
194.4274278
20
-107.3560393
11
207.1433466
21
-104.6531873
0
LINE
8
0
10
191.1315462
20
-94.2550025
11
193.8343982
21
-106.9709213
0
LINE
8
0
10
204.8256126
20
-91.3442389
11
207.5284646
21
-104.0601577
0
ARC
8
0
10
191.62062
20
-94.1510467
40
0.5
50
102
51
192
0
ARC
8
0
10
204.3365388
20
-91.4481947
40
0.5
50
12
51
102
0
ARC
8
0
10
194.323472
20
-106.8669655
40
0.5
50
192
51
282
0
ARC
8
0
10
207.0393908
20
-104.1641135
40
0.5
50
282
51
12
0
LINE
8
0
10
209.123321
20
-89.9195625
11
221.8392398
21
-87.2167105
0
LINE
8
0
10
212.0340846
20
-103.6136289
11
224.7500034
21
-100.9107769
0
LINE
8
0
10
208.738203
20
-90.5125921
11
211.441055
21
-103.2285109
0
LINE
8
0
10
222.4322694
20
-87.6018285
11
225.1351214
21
-100.3177473
0
ARC
8
0
10
209.2272768
20
-90.4086363
40
0.5
50
102
51
192
0
ARC
8
0
10
221.9431956
20
-87.7057843
40
0.5
50
12
51
102
0
ARC
8
0
10
211.9301288
20
-103.1245551
40
0.5
50
192
51
282
0
ARC
8
0
10
224.6460476
20
-100.4217031
40
0.5
50
282
51
12
0
LINE
8
0
10
226.7299778
20
-86.1771521
11
239.4458966
21
-83.4743001
0
LINE
8
0
10
229.6407414
20
-99.8712185
11
242.3566602
21
-97.1683665
0
LINE
8
0
10
226.3448598
20
-86.7701817
11
229.0477118
21
-99.4861005
0
LINE
8
0
10
240.0389262
20
-83.8594181
11
242.7417782
21
-96.5753369
0
ARC
8
0
10
226.8339336
20
-86.6662259
40
0.5
50
102
51
192
0
ARC
8
0
10
239.5498524
20
-83.9633739
40
0.5
50
12
51
102
0
ARC
8
0
10
229.5367856
20
-99.3821447
40
0.5
50
192
51
282
0
ARC
8
0
10
242.2527044
20
-96.6792927
40
0.5
50
282
51
12
0
LINE
8
0
10
167.0884237
20
-117.2564864
11
179.8043425
21
-114.5536344
0
LINE
8
0
10
169.9991873
20
-130.9505528
11
182.7151061
21
-128.2477008
0
LINE
8
0
10
166.7033057
20
-117.849516
11
169.4061577
21
-130.5654348
0
LINE
8
0
10
180.3973721
20
-114.9387524
11
183.1002241
21
-127.6546712
0
ARC
8
0
10
167.1923795
20
-117.7455602
40
0.5
50
102
51
192
0
ARC
8
0
10
179.9082983
20
-115.0427082
40
0.5
50
12
51
102
0
ARC
8
0
10
169.8952315
20
-130.461479
40
0.5
50
192
51
282
0
ARC
8
0
10
182.6111503
20
-127.758627
40
0.5
50
282
51
12
0
LINE
8
0
10
184.6950805
20
-113.514076
11
197.4109993
21
-110.811224
0
LINE
8
0
10
187.6058441
20
-127.2081424
11
200.3217629
21
-124.5052904
0
LINE
8
0
10
184.3099625
20
-114.1071056
11
187.0128145
21
-126.8230244
0
LINE
8
0
10
198.0040289
20
-111.196342
11
200.7068809
21
-123.9122608
0
ARC
8
0
10
184.7990363
20
-114.0031498
40
0.5
50
102
51
192
0
ARC
8
0
10
197.5149551
20
-111.3002978
40
0.5
50
12
51
102
0
ARC
8
0
10
187.5018883
20
-126.7190686
40
0.5
50
192
51
282
0
ARC
8
0
10
200.2178071
20
-124.0162166
40
0.5
50
282
51
12
0
LINE
8
0
10
202.3017374
20
-109.7716656
11
215.0176562
21
-107.0688136
0
LINE
8
0
10
205.212501
20
-123.465732
11
217.9284198
21
-120.76288
0
LINE
8
0
10
201.9166194
20
-110.3646952
11
204.6194714
21
-123.080614
0
LINE
8
0
10
215.6106858
20
-107.4539316
11
218.3135378
21
-120.1698504
0
ARC
8
0
10
202.4056932
20
-110.2607394
40
0.5
50
102
51
192
0
ARC
8
0
10
215.121612
20
-107.5578874
40
0.5
50
12
51
102
0
ARC
8
0
10
205.1085452
20
-122.9766582
40
0.5
50
192
51
282
0
ARC
8
0
10
217.824464
20
-120.2738062
40
0.5
50
282
51
12
0
LINE
8
0
10
219.9083942
20
-106.0292551
11
232.624313
21
-103.3264031
0
LINE
8
0
10
222.8191578
20
-119.7233215
11
235.5350766
21
-117.0204695
0
LINE
8
0
10
219.5232762
20
-106.6222847
11
222.2261282
21
-119.3382035
0
LINE
8
0
10
233.2173426
20
-103.7115211
11
235.9201946
21
-116.4274399
0
ARC
8
0
10
220.01235
20
-106.5183289
40
0.5
50
102
51
192
0
ARC
8
0
10
232.7282688
20
-103.8154769
40
0.5
50
12
51
102
0
ARC
8
0
10
222.715202
20
-119.2342477
40
0.5
50
192
51
282
0
ARC
8
0
10
235.4311208
20
-116.5313957
40
0.5
50
282
51
12
0
LINE
8
0
10
18
20
-131.7520936
11
288
21
-131.7520936
0
LINE
8
0
10
18
20
-44.6526378
11
288
21
-44.6526378
0
LINE
8
0
10
18
20
-131.7520936
11
18
21
-44.6526378
0
LINE
8
0
10
288
20
-131.7520936
11
288
21
-44.6526378
0
ENDSEC
0
EOF